<?xml version="1.0" standalone="no"?>
<!DOCTYPE svg PUBLIC "-//W3C//DTD SVG 20010904//EN"
 "http://www.w3.org/TR/2001/REC-SVG-20010904/DTD/svg10.dtd">
<svg version="1.0" xmlns="http://www.w3.org/2000/svg"
 width="25.000000pt" height="25.000000pt" viewBox="0 0 25.000000 25.000000"
 preserveAspectRatio="xMidYMid meet">

<g transform="translate(0.000000,25.000000) scale(0.100000,-0.100000)"
fill="#000000" stroke="none">
<path d="M113 213 c11 -3 16 -11 13 -19 -5 -14 4 -18 35 -15 9 1 19 -8 23 -21
9 -37 7 -46 -15 -67 -12 -11 -19 -28 -17 -41 l3 -22 27 21 c14 12 29 35 33 51
7 33 -2 73 -15 65 -4 -3 -7 3 -6 12 1 20 -39 43 -74 42 -18 -1 -20 -3 -7 -6z"/>
<path d="M59 197 c0 -1 -2 -22 -4 -47 l-3 -45 10 38 c8 31 14 38 29 34 11 -3
17 -2 14 3 -4 6 -44 21 -46 17z"/>
<path d="M32 125 c0 -16 2 -22 5 -12 2 9 2 23 0 30 -3 6 -5 -1 -5 -18z"/>
<path d="M50 90 c-12 -7 -11 -13 4 -29 11 -12 26 -21 35 -21 11 0 9 4 -7 16
-12 8 -22 20 -22 26 0 6 6 6 15 -2 9 -7 17 -11 20 -9 9 10 -32 27 -45 19z"/>
<path d="M40 36 c0 -2 8 -10 18 -17 15 -13 16 -12 3 4 -13 16 -21 21 -21 13z"/>
<path d="M189 23 c-13 -16 -12 -17 4 -4 9 7 17 15 17 17 0 8 -8 3 -21 -13z"/>
</g>
</svg>
