<?xml version="1.0" standalone="no"?>
<!DOCTYPE svg PUBLIC "-//W3C//DTD SVG 20010904//EN"
 "http://www.w3.org/TR/2001/REC-SVG-20010904/DTD/svg10.dtd">
<svg version="1.0" xmlns="http://www.w3.org/2000/svg"
 width="25.000000pt" height="25.000000pt" viewBox="0 0 25.000000 25.000000"
 preserveAspectRatio="xMidYMid meet">

<g transform="translate(0.000000,25.000000) scale(0.100000,-0.100000)"
fill="#000000" stroke="none">
<path d="M85 198 c-30 -17 -44 -40 -45 -70 0 -43 18 -42 25 3 8 46 35 63 81
50 23 -6 30 -14 35 -44 4 -24 1 -44 -8 -57 -18 -25 -2 -26 20 -2 25 28 21 78
-8 107 -26 27 -67 32 -100 13z"/>
<path d="M84 156 c-9 -23 0 -59 14 -64 11 -3 11 -1 0 18 -11 18 -11 23 5 35
11 7 25 11 33 8 8 -3 14 0 14 6 0 16 -60 13 -66 -3z"/>
<path d="M155 131 c4 -13 -1 -25 -17 -36 -17 -13 -18 -16 -5 -11 10 3 23 6 28
6 5 0 9 14 9 30 0 17 -5 30 -11 30 -6 0 -8 -8 -4 -19z"/>
<path d="M110 125 c0 -8 7 -15 15 -15 8 0 15 7 15 15 0 8 -7 15 -15 15 -8 0
-15 -7 -15 -15z"/>
</g>
</svg>
